<svg version="1.1" xmlns="http://www.w3.org/2000/svg" style="display: block;" viewBox="0 0 2048 2048" width="2048" height="2048" preserveAspectRatio="none">
<path transform="translate(0,0)" fill="rgb(41,11,9)" d="M 924.129 691.285 C 969.465 685.511 1019.11 731.648 1029.89 773.137 C 1042.33 748.921 1063.98 730.719 1089.97 722.619 C 1119.48 713.127 1155.67 720.885 1183.43 734.03 C 1226.74 754.534 1208.87 788.051 1188.84 822.23 C 1234.69 841.533 1259.56 871.676 1261.59 922.072 C 1306.76 947.695 1325.14 986.284 1317.45 1037.05 C 1316.49 1055.58 1299.85 1071.59 1295.41 1086.88 C 1290.96 1102.18 1286.84 1121.09 1282.54 1136.83 L 1250.77 1249.22 C 1246.94 1262.68 1238.49 1295.93 1233.55 1307.66 C 1250.08 1307.75 1266.61 1307.72 1283.14 1307.55 C 1294.58 1307.5 1310.53 1305.45 1320.06 1312.2 C 1331.53 1320.32 1324.68 1340.98 1311.5 1341.51 C 1291.02 1342.34 1270.08 1341.89 1249.5 1341.88 L 1114.25 1341.84 L 858.434 1341.89 L 782.376 1341.86 C 769.263 1341.89 755.974 1342.24 742.896 1341.75 C 727.287 1341.16 717.565 1323.19 730.907 1312.41 C 740.029 1305.05 755.223 1307.47 766.359 1307.48 C 784.05 1307.41 801.74 1307.44 819.431 1307.56 C 814.632 1296.21 806.568 1263.39 802.839 1250.06 L 767.981 1129.55 C 763.799 1114.86 760.361 1099.98 756.879 1085.16 C 753.702 1077.03 746.953 1068.95 743.506 1061.15 C 718.637 1004.84 736.002 949.074 791.386 922.127 C 793.459 859.845 842.158 820.009 901.198 810.763 C 911.093 809.213 920.803 808.576 930.781 807.815 C 943.929 782.961 972.156 777.355 997.571 783.176 C 986.725 753.256 964.091 728.294 930.949 723.889 C 925.185 723.176 918.585 721.413 915.408 715.875 C 909.43 705.454 915.481 696.662 924.129 691.285 z M 796.09 1077.28 C 813.775 1065.87 836.387 1061.75 856.262 1070.17 C 867.491 1075.5 871.17 1077.94 880.561 1086.1 C 912.423 1059.99 946.098 1057.38 977.632 1086.25 C 1009.17 1060.08 1042.07 1057.88 1073.27 1086.34 C 1106.21 1059.02 1137.9 1057.68 1171.12 1085.68 C 1199.55 1062.24 1223.2 1059.39 1256.07 1077.09 C 1310.91 1021 1283.7 944.079 1202.34 946.385 C 1128.62 950.539 1091.08 1007.64 1020.67 1017.77 C 984.774 1022.94 946.944 1012.52 915.375 995.716 C 876.192 974.865 824.388 925.342 782.443 969.933 C 770.685 982.478 765.526 1003.9 767.31 1020.63 C 770.036 1046.2 779.697 1058.97 796.09 1077.28 z M 911.779 843.467 C 868.634 850.409 831.663 870.74 826.635 917.806 C 897.463 922.611 945.32 1004.7 1030.73 980.754 C 1075.59 968.175 1106.6 937.115 1149.77 922.287 C 1174.18 913.306 1200.33 910.091 1226.19 912.892 C 1219.6 875.717 1196.68 859.921 1162.08 849.771 C 1141.76 861.023 1131.61 864.55 1108.41 866.377 C 1092.97 891.945 1074.06 908.988 1044.43 916.533 C 994.293 929.299 935.371 895.416 927.367 842.919 C 922.173 843.044 916.958 843.104 911.779 843.467 z"/>
<path transform="translate(0,0)" fill="rgb(233,114,115)" d="M 925.343 1100.3 C 935.35 1099.97 942.802 1101.15 950.687 1107.83 C 959.111 1114.97 960.01 1124.1 960.873 1134.39 C 962.257 1150.89 963.32 1167.43 964.351 1183.96 C 967.025 1225.27 969.434 1266.61 971.579 1307.95 L 948.25 1307.85 L 929.548 1307.78 C 918.544 1248.75 909.006 1187.06 899.681 1127.57 C 897.387 1112.93 912.094 1102.93 925.343 1100.3 z"/>
<path transform="translate(0,0)" fill="rgb(233,114,115)" d="M 1081.69 1307.77 C 1082.57 1253.92 1089.18 1198.58 1090.13 1144.56 C 1090.32 1133.79 1090.57 1119.43 1098 1111.26 C 1110.99 1096.97 1131.26 1096.65 1145.19 1109.26 L 1145.26 1109.95 C 1149 1112.58 1152.37 1118.85 1152.09 1123.4 C 1150.8 1144.19 1146.65 1166.13 1143.31 1186.66 L 1123.61 1307.86 L 1081.69 1307.77 z"/>
<path transform="translate(0,0)" fill="rgb(233,114,115)" d="M 1018.56 1101.12 C 1063.8 1098.4 1056.44 1132.48 1054.58 1164.29 C 1051.79 1212.02 1050.94 1260.33 1046.99 1307.94 L 1031.89 1307.89 L 1006.18 1307.81 C 1003.47 1247.78 997.516 1186.92 995.656 1126.8 C 995.264 1114.13 1007.46 1104.86 1018.56 1101.12 z"/>
<path transform="translate(0,0)" fill="rgb(233,114,115)" d="M 1211.09 1101.23 C 1229.88 1099.48 1252.67 1106.05 1247.99 1129.72 C 1243.74 1151.27 1236.63 1173.23 1230.55 1194.41 L 1198 1307.88 L 1158.45 1307.76 C 1165.87 1254.49 1176.2 1200.86 1184.43 1147.62 C 1187.97 1124.73 1187.27 1111.12 1211.09 1101.23 z"/>
<path transform="translate(0,0)" fill="rgb(233,114,115)" d="M 825.271 1101.15 C 838.463 1100.18 857.313 1104.09 861.572 1118.96 C 866.922 1137.64 869.817 1158.97 873.204 1178.27 C 880.722 1221.47 887.989 1264.71 895.004 1307.99 L 874.368 1307.92 L 854.352 1307.82 C 843.984 1269.95 833.338 1232.15 822.414 1194.44 C 817.381 1177.08 804.108 1136.77 803.037 1121.61 C 808.359 1109.48 813.26 1105.6 825.271 1101.15 z"/>
<path transform="translate(0,0)" fill="rgb(233,114,115)" d="M 1059.75 812.411 C 1121.82 816.502 1051.27 924.815 979.827 869.398 C 939.74 832.013 966.056 791.189 1006.92 827.889 C 1031.74 850.18 1032.79 815.196 1059.75 812.411 z"/>
<path transform="translate(0,0)" fill="rgb(79,142,109)" d="M 1071.23 772.676 C 1097.67 744.305 1148.38 746.481 1176.57 770.366 C 1165.81 802.687 1151.91 825.349 1116.22 831.886 C 1112.26 799.243 1098.16 784.921 1065.7 780.362 C 1066.05 777.436 1065.71 778.554 1067.59 776.016 L 1071.23 772.676 z"/>
</svg>