<svg xmlns="http://www.w3.org/2000/svg" viewBox="0 0 64 64" role="img" aria-label="Atelier 21">
  <rect width="64" height="64" rx="18" fill="#D16075"/>
  <path d="M22 14c3 0 5 3 5 7v8h-4v-8c0-2-1-4-1-4s-1 2-1 4v8h-4v-8c0-4 2-7 5-7z" fill="#FFF5F7"/>
  <path d="M42 14c3 0 5 3 5 7v8h-4v-8c0-2-1-4-1-4s-1 2-1 4v8h-4v-8c0-4 2-7 5-7z" fill="#FFF5F7"/>
  <circle cx="32" cy="35" r="16" fill="#FFF5F7"/>
  <circle cx="26" cy="33" r="2" fill="#4A3338"/>
  <circle cx="38" cy="33" r="2" fill="#4A3338"/>
  <path d="M32 35c-2 0-4 2-4 4 0 3 2 5 4 5s4-2 4-5c0-2-2-4-4-4z" fill="#D16075"/>
  <path d="M24 44c2 3 5 4 8 4s6-1 8-4" fill="none" stroke="#4A3338" stroke-linecap="round" stroke-width="2.5"/>
</svg>
